
<svg xmlns="http://www.w3.org/2000/svg" fill="none" viewBox="0 0 333 135"><path fill="#fff" d="M67.145 84.884h-.015v2.638h.032v-2.638h-.017Z"/><path fill="#fff" d="M67.146 81.552c-7.827 0-14.171-6.346-14.171-14.173 0-7.826 6.344-14.17 14.17-14.17 7.827 0 14.173 6.344 14.173 14.17 0 7.827-6.346 14.172-14.172 14.172Zm20.142-14.173c0-11.124-9.018-20.142-20.142-20.142-11.124 0-20.143 9.018-20.143 20.142 0 9.904 7.15 18.134 16.57 19.82 1.155.209 2.374.322 3.589.323v47.238c2.865 0 5.688-.18 8.458-.53-1.633-15.676-3.266-31.353-4.901-47.03 9.419-1.687 16.57-9.916 16.57-19.82Z"/><path fill="#fff" d="m75.643 92.75 12.93 38.529a66.543 66.543 0 0 0 6.74-2.676L78.365 91.788a21.47 21.47 0 0 1-2.723.961ZM82.515 89.56l23.022 33.195a68.204 68.204 0 0 0 5.248-4.04L84.632 87.96a19.932 19.932 0 0 1-2.117 1.6ZM87.743 84.774l30.889 26.067a68.262 68.262 0 0 0 3.912-5.104L89.255 82.694c-.56.861-.862 1.279-1.512 2.08ZM91.33 78.826l36.734 17.373a66.65 66.65 0 0 0 2.484-5.968l-38.31-13.804c-.32.976-.5 1.457-.908 2.399ZM93.577 69.588a24.597 24.597 0 0 1-.303 2.559l40.168 7.323c.385-2.127.669-4.29.849-6.482l-40.714-3.4ZM93.577 65.171l40.714-3.4a67.382 67.382 0 0 0-.849-6.483l-40.168 7.325c.165 1.017.227 1.53.303 2.558ZM92.237 58.333l38.311-13.806a66.97 66.97 0 0 0-2.484-5.968L91.329 55.934c.408.941.59 1.422.908 2.399ZM89.255 52.065l33.289-23.043a67.832 67.832 0 0 0-3.912-5.103l-30.89 26.065c.65.803.953 1.22 1.513 2.08ZM84.631 46.8l26.155-30.754a68.13 68.13 0 0 0-5.248-4.041L82.514 45.198c.892.599 1.314.92 2.117 1.602ZM95.312 6.156a66.674 66.674 0 0 0-6.74-2.676l-12.93 38.53c1.134.33 1.68.525 2.723.96C84.013 30.7 89.664 18.429 95.312 6.157ZM75.567.523A68.034 68.034 0 0 0 67.162 0v40.85h-.016c1.364 0 2.03.034 3.31.163 1.705-13.496 3.409-26.993 5.111-40.49ZM67.13 87.522a20.169 20.169 0 0 1-3.557-.323L58.67 134.23c2.771.348 5.594.53 8.46.53V87.522ZM67.13 87.522v47.238h.03c0-15.746 0-31.492.002-47.238h-.032ZM67.146 40.85h-.016V0c-2.846 0-5.652.18-8.406.523l5.11 40.492a27.528 27.528 0 0 1 3.312-.164Z"/><path fill="#fff" d="M67.162 0h-.032v40.85h.032V0ZM58.648 42.01 45.72 3.48a66.99 66.99 0 0 0-6.74 2.676l16.947 36.816c1.044-.437 1.589-.63 2.722-.962ZM51.777 45.2c-7.675-11.065-15.35-22.13-23.023-33.196a68.318 68.318 0 0 0-5.25 4.042c8.72 10.25 17.438 20.502 26.155 30.755a19.64 19.64 0 0 1 2.118-1.602ZM46.548 49.985 15.66 23.92a67.674 67.674 0 0 0-3.912 5.102l33.288 23.043c.56-.86.863-1.277 1.512-2.08ZM42.962 55.934 6.227 38.56a66.641 66.641 0 0 0-2.484 5.969l38.31 13.804c.32-.976.5-1.457.909-2.399ZM41.017 62.613.85 55.29A67.701 67.701 0 0 0 0 61.772c13.572 1.133 27.143 2.267 40.715 3.399.077-1.028.137-1.54.302-2.558ZM40.715 69.588 0 72.989c.181 2.192.464 4.355.85 6.483l40.167-7.324a24.979 24.979 0 0 1-.302-2.559ZM42.054 76.427 3.744 90.232A67.16 67.16 0 0 0 6.226 96.2l36.736-17.374a22.915 22.915 0 0 1-.908-2.399ZM45.036 82.695c-11.096 7.682-22.192 15.362-33.288 23.042a67.696 67.696 0 0 0 3.912 5.104c10.296-8.69 20.592-17.378 30.888-26.066a20.657 20.657 0 0 1-1.512-2.08ZM49.66 87.96l-26.155 30.754a67.726 67.726 0 0 0 5.25 4.04L51.777 89.56a19.603 19.603 0 0 1-2.117-1.6ZM55.926 91.788 38.98 128.603a66.674 66.674 0 0 0 6.74 2.676l12.93-38.53a21.34 21.34 0 0 1-2.723-.96ZM156.989 48.422l-1.361 4.041h2.638l-1.277-4.041Zm2.957 9.404-.701-2.256h-4.66l-.745 2.256h-3.894l5.511-15.15h2.872l5.511 15.15h-3.894ZM174.825 56.251c-1.297 1.34-2.744 1.703-4.404 1.703-1.829 0-3.107-.576-4.192-1.66-1.553-1.553-1.553-3.49-1.553-6.043s0-4.49 1.553-6.042c1.085-1.086 2.363-1.66 4.192-1.66 3.893 0 5.553 2.533 5.915 5.02h-3.744c-.299-1.147-.895-1.702-2.171-1.702-.68 0-1.192.299-1.468.662-.341.446-.553.955-.553 3.722 0 2.766.212 3.297.553 3.745.276.362.788.638 1.468.638.787 0 1.32-.233 1.66-.596.425-.425.575-1.041.575-1.616v-.213h-2.235v-3.107h5.936v2.107c0 2.446-.383 3.873-1.532 5.042ZM178.937 57.826v-15.15h10.299v3.319h-6.575v2.532h5.617v3.32h-5.617v2.66h6.575v3.319h-10.299ZM200.454 57.826l-4.851-7.618v7.618h-3.724v-15.15h3.256l4.851 7.618v-7.618h3.724v15.15h-3.256ZM212.057 57.954c-1.851 0-3.128-.576-4.214-1.66-1.553-1.553-1.553-3.49-1.553-6.043s0-4.49 1.553-6.042c1.086-1.086 2.363-1.66 4.214-1.66 2.872 0 5.17 1.596 5.722 4.935h-3.786c-.234-.849-.703-1.616-1.936-1.616-.682 0-1.191.276-1.47.64-.338.446-.573.976-.573 3.743 0 2.766.235 3.297.573 3.745.279.362.788.638 1.47.638 1.233 0 1.702-.766 1.936-1.617h3.786c-.552 3.34-2.85 4.937-5.722 4.937ZM219.743 42.677h3.723v15.15h-3.723v-15.15ZM232.043 48.422l-1.361 4.041h2.638l-1.277-4.041ZM235 57.826l-.701-2.256h-4.66l-.744 2.256H225l5.512-15.15h2.871l5.512 15.15H235ZM252.307 46.847c-.339-.51-.851-.852-1.787-.852h-1.639v8.512h1.639c.936 0 1.448-.341 1.787-.852.298-.424.404-.83.404-3.404 0-2.553-.106-2.979-.404-3.404Zm3.384 8.425c-1.043 1.682-2.639 2.554-4.915 2.554h-5.617v-15.15h5.617c2.276 0 3.872.872 4.915 2.554.744 1.213.744 2.404.744 5.021s0 3.81-.744 5.021ZM259.016 57.826v-15.15h10.297v3.319h-6.574v2.532h5.617v3.32h-5.617v2.66h6.574v3.319h-10.297ZM157.713 77.038h-2.767l-4.999-15.149h3.851l2.553 8.468 2.511-8.468h3.872l-5.021 15.15ZM164.271 61.889h3.723v15.15h-3.723v-15.15ZM176.572 67.634l-1.361 4.043h2.638l-1.277-4.043Zm2.957 9.404-.701-2.255h-4.66l-.744 2.255h-3.895l5.512-15.15h2.871l5.512 15.15h-3.895ZM187.706 77.166c-1.766 0-2.894-.425-4.127-1.66l2.445-2.424c.468.468.852.765 1.682.765 1.149 0 1.978-.638 1.978-2.085v-9.873h3.724v9.958c0 3.596-2.85 5.319-5.702 5.319ZM196.265 77.038V61.89h10.297v3.319h-6.574v2.532h5.617v3.32h-5.617v2.66h6.574v3.318h-10.297ZM213.526 77.166c-2.32 0-4.214-.425-5.746-2l2.384-2.384c.787.788 2.17 1.065 3.383 1.065 1.468 0 2.169-.489 2.169-1.362 0-.362-.084-.659-.297-.894-.192-.192-.511-.34-1-.404l-1.831-.256c-1.34-.19-2.361-.637-3.042-1.34-.702-.722-1.042-1.744-1.042-3.042 0-2.767 2.086-4.787 5.531-4.787 2.171 0 3.809.51 5.107 1.808l-2.34 2.341c-.787-.788-1.659-.894-2.872-.894-1.298 0-1.83.745-1.83 1.404 0 .192.064.468.298.702.19.192.51.383 1.042.447l1.831.256c1.361.19 2.339.617 2.977 1.255.808.788 1.128 1.914 1.128 3.32 0 3.084-2.658 4.765-5.85 4.765ZM233.32 70.868v6.17h-3.723v-6.17l-4.576-8.979h4.066l2.382 5.447 2.362-5.447h4.064l-4.575 8.979ZM250.71 65.208V77.04h-3.722V65.21h-3.724v-3.32h11.169v3.32h-3.723ZM262.078 77.166c-3.148 0-5.723-2.127-5.723-5.447v-9.83h3.723v9.746c0 1.403.766 2.212 2 2.212s2.042-.809 2.042-2.212V61.89h3.724v9.83c0 3.32-2.617 5.447-5.766 5.447ZM276.488 65.23h-2.107v3.065h2.107c1.021 0 1.617-.746 1.617-1.534 0-.786-.596-1.53-1.617-1.53Zm1.831 11.809-2.682-5.64h-1.256v5.64h-3.722v-15.15h6c3.361 0 5.17 2.384 5.17 4.872 0 2.064-1.277 3.362-2.469 3.959l3.276 6.319h-4.317ZM284.537 61.889h3.722v15.15h-3.722v-15.15ZM295.645 77.166c-2.318 0-4.213-.425-5.744-2l2.383-2.384c.787.788 2.169 1.065 3.383 1.065 1.468 0 2.17-.489 2.17-1.362 0-.362-.085-.659-.298-.894-.191-.192-.511-.34-1-.404l-1.83-.256c-1.341-.19-2.361-.637-3.042-1.34-.703-.722-1.043-1.744-1.043-3.042 0-2.767 2.085-4.787 5.532-4.787 2.169 0 3.808.51 5.105 1.808l-2.338 2.341c-.788-.788-1.66-.894-2.874-.894-1.297 0-1.829.745-1.829 1.404 0 .192.064.468.297.702.192.192.511.383 1.044.447l1.83.256c1.361.19 2.34.617 2.977 1.255.809.788 1.128 1.914 1.128 3.32 0 3.084-2.659 4.765-5.851 4.765ZM314.353 77.038v-7.256l-2.148 3.746h-2.382l-2.15-3.746v7.256h-3.724V61.89h3.659l3.405 6.681 3.404-6.681h3.66v15.15h-3.724ZM327.914 65.74c-.277-.361-.808-.66-1.489-.66s-1.213.299-1.489.66c-.34.447-.554.958-.554 3.724s.214 3.255.554 3.701c.276.362.808.682 1.489.682s1.212-.32 1.489-.681c.34-.447.554-.936.554-3.702s-.214-3.277-.554-3.724Zm2.723 9.766c-1.084 1.085-2.361 1.66-4.212 1.66-1.851 0-3.128-.575-4.213-1.66-1.554-1.552-1.554-3.489-1.554-6.042s0-4.49 1.554-6.042c1.085-1.086 2.362-1.66 4.213-1.66s3.128.574 4.212 1.66c1.555 1.553 1.555 3.489 1.555 6.042s0 4.49-1.555 6.041ZM157.308 84.444h-2.106v3.064h2.106c1.022 0 1.618-.745 1.618-1.533 0-.786-.596-1.531-1.618-1.531Zm1.831 11.808-2.681-5.639h-1.256v5.639h-3.723V81.104h6c3.361 0 5.171 2.381 5.171 4.87 0 2.065-1.278 3.362-2.47 3.96l3.278 6.318h-4.319ZM165.357 96.252V81.104h10.299v3.317h-6.575v2.532h5.617v3.32h-5.617v2.66h6.575v3.319h-10.299ZM187.958 94.678c-1.298 1.34-2.745 1.701-4.404 1.701-1.829 0-3.106-.575-4.192-1.659-1.553-1.553-1.553-3.489-1.553-6.042s0-4.49 1.553-6.043c1.086-1.085 2.363-1.659 4.192-1.659 3.894 0 5.552 2.532 5.915 5.02h-3.744c-.299-1.149-.895-1.702-2.171-1.702-.68 0-1.192.299-1.468.66-.341.447-.553.957-.553 3.724 0 2.765.212 3.297.553 3.745.276.361.788.638 1.468.638.787 0 1.319-.234 1.659-.597.425-.425.575-1.04.575-1.615v-.214h-2.234v-3.107h5.936v2.107c0 2.447-.384 3.873-1.532 5.043ZM192.071 81.103h3.723v15.148h-3.723V81.103ZM203.18 96.38c-2.318 0-4.213-.426-5.745-2l2.384-2.383c.787.787 2.169 1.064 3.383 1.064 1.468 0 2.17-.49 2.17-1.363 0-.361-.085-.658-.298-.893-.192-.192-.511-.34-1-.404l-1.831-.256c-1.34-.19-2.36-.637-3.041-1.34-.703-.723-1.043-1.744-1.043-3.041 0-2.767 2.085-4.788 5.531-4.788 2.17 0 3.809.51 5.106 1.808l-2.34 2.341c-.786-.788-1.658-.895-2.872-.895-1.297 0-1.829.746-1.829 1.404 0 .192.064.468.297.703.191.192.511.383 1.043.447l1.831.256c1.361.192 2.338.617 2.977 1.254.808.788 1.128 1.915 1.128 3.32 0 3.084-2.659 4.766-5.851 4.766ZM218.037 84.422v11.83h-3.724v-11.83h-3.723v-3.319h11.17v3.319h-3.723ZM229.765 84.444h-2.106v3.064h2.106c1.022 0 1.618-.745 1.618-1.533 0-.786-.596-1.531-1.618-1.531Zm1.831 11.808-2.681-5.639h-1.256v5.639h-3.724V81.104h6.001c3.361 0 5.171 2.381 5.171 4.87 0 2.065-1.278 3.362-2.47 3.96l3.276 6.318h-4.317ZM243.324 86.848l-1.361 4.042h2.639l-1.278-4.042Zm2.959 9.404-.703-2.255h-4.66l-.744 2.255h-3.894l5.512-15.148h2.872l5.51 15.148h-3.893ZM258.864 85.273c-.342-.51-.852-.852-1.788-.852h-1.639v8.512h1.639c.936 0 1.446-.34 1.788-.852.297-.425.404-.829.404-3.404 0-2.553-.107-2.978-.404-3.404Zm3.382 8.426c-1.042 1.681-2.638 2.553-4.914 2.553h-5.618V81.104h5.618c2.276 0 3.872.87 4.914 2.552.744 1.213.744 2.404.744 5.021 0 2.618 0 3.81-.744 5.022ZM270.869 86.848l-1.361 4.042h2.638l-1.277-4.042Zm2.957 9.404-.701-2.255h-4.66l-.745 2.255h-3.894l5.512-15.148h2.871l5.512 15.148h-3.895Z"/></svg>
