<svg xmlns="http://www.w3.org/2000/svg" viewBox="0 0 128 128" fill="none">
  <style>
    path { fill: #0d1725; }
    @media (prefers-color-scheme: dark) {
      path { fill: #FFF; }
    }
  </style>
  <g transform="translate(0,10)"> <!-- Ajusta el valor aquí -->
    <!-- Todos los path van aquí -->
    <path d="M32.25 34.72h19.02l-19.03.04.01-.04Z"/>
    <path d="M51.83 32.67l-.54 2.05-4.6 17.45 4.58-17.45.56-2.05Z"/>
    <path d="M26.92 55.04l-2.91 11.09 19 .02 3.62-13.76-19.71 2.65Z"/>
    <path d="m55.75 17.99-3.93 14.68-.55 2.05H32.25l.42-1.6 1.27-4.73c1.29-4.84 5.49-8.42 10.6-9.04l11.21-1.36Z"/>
    <path d="m32.67 33.12-.42 1.6h-.01l.43-1.6Z"/>
    <path d="M94.45 25.3c0 .1-.02 10.59-6.88 17.96-2.68 2.87-6.04 5.08-9.72 6.53-4.43 1.75-8.78 2.34-13.52 2.44-5.59.11-12.06-.05-17.65-.05l4.58-17.45H64.3c.97 0 1.95.05 2.91-.05 1.49-.16 2.98-.59 4.32-1.25 1.41-.69 2.67-1.68 3.57-2.95.6-.85 1.06-1.81 1.32-2.8.29-1.08.37-2.23.08-3.31-.54-2.04-1.99-3.38-3.52-4.38-2.08-1.36-4.58-1.91-7.1-2-2.46-.09-8.74-.08-9.91-.08l-19.23-.02-25.21-.01L17.03 0l49.49.01c5.62.35 7.1.57 11.85 2.53 3.27 1.34 6.7 3.6 9.19 6.33 7.58 7.26 6.89 16.43 6.89 16.43Z"/>
    <path d="m56.15 77.61-3.49 16.1s-22.92-.01-23.03-.02C13.19 92.94.23 80.98.23 64.83c0-16.24 13.25-29.47 29.84-30.08l2.17-.01 19.03-.05-4.58 17.45s-15.25.34-19.15.45c-5.68.17-9.44 6.43-9.44 12.23 0 6.46 5.28 11.84 11.71 12.7.41.05.82.07 1.23.07h25.11v.02Z"/>
  </g>
</svg>
