<svg xmlns="http://www.w3.org/2000/svg" viewBox="0 0 397 98" fill="#ffffff" aria-hidden="true">
  <path d="M33.3 36.14h19.78l-19.79.04.01-.04Z"/>
  <path d="m53.65 34-.56 2.13-4.78 18.15 4.77-18.15.57-2.13ZM27.75 57.27 24.73 68.8l19.75.02 3.77-14.31-20.5 2.76Z"/>
  <path d="M57.73 18.74 53.65 34l-.57 2.13H33.3l.44-1.66 1.32-4.92c1.34-5.03 5.71-8.75 11.02-9.4l11.65-1.41Z"/>
  <path d="m33.74 34.47-.44 1.67h-.01l.45-1.67Z"/>
  <path d="M97.97 26.34c0 .1-.02 11.02-7.15 18.67-2.78 2.99-6.28 5.29-10.11 6.79-4.6 1.81-9.13 2.43-14.06 2.54-5.81.11-12.54-.06-18.35-.06l4.77-18.15H66.62c1.01 0 2.02.06 3.03-.06a13.8 13.8 0 0 0 4.49-1.3c1.47-.72 2.78-1.75 3.71-3.07.63-.88 1.1-1.88 1.37-2.92.3-1.13.38-2.31.08-3.44-.56-2.12-2.07-3.51-3.66-4.56-2.16-1.42-4.77-1.99-7.38-2.08-2.55-.1-9.08-.08-10.3-.08l-20-.02-26.22-.01L17.45 0l51.47.01c5.84.36 7.39.59 12.33 2.63 3.4 1.39 6.96 3.74 9.56 6.58 7.88 7.59 7.16 17.12 7.16 17.12Z"/>
  <path d="m58.15 80.74-3.63 16.75s-23.83-.01-23.95-.02C13.48 96.69 0 84.25 0 67.47 0 50.58 13.78 36.82 31.03 36.2l2.26-.01 19.79-.05-4.77 18.15s-15.86.35-19.92.47c-5.9.17-9.81 6.69-9.81 12.71 0 6.72 5.49 12.32 12.18 13.2.42.06.86.07 1.28.07h26.11Z"/>
  <path d="M122.63 38.87v14.38h6.93V32.39l-2.28.59c-2.74.71-4.65 3.13-4.65 5.89Zm-8.4-12.27v5.79h23.74V26.6h-23.74ZM157.06 26.6v16.54c0 2.86-1.97 4.55-4.72 4.55-2.71 0-4.84-1.69-4.84-4.59V26.6h-6.89v16.02c0 6.43 4.72 11.05 11.73 11.05 7.01 0 11.69-4.59 11.69-11.02V26.6h-6.97ZM182.92 42.12c4.07-.9 6.62-3.72 6.62-7.59 0-4.7-3.87-7.93-9.41-7.93h-11.69v26.65h6.93V42.46h.39l7.55 10.79h8.02l-8.41-11.13Zm-3.75-4.47h-3.79V31.6h3.79c2.28 0 3.52 1.24 3.52 3.05 0 1.83-1.24 3-3.52 3ZM193.57 26.6v26.65h6.93V26.6h-6.93ZM211.58 33.55c0-1.24 1.16-1.88 3.06-1.88 2.05 0 3.64.79 5.3 2.41l4.41-4.25c-2.17-2.29-5.69-3.68-9.64-3.68-5.96 0-9.99 3.05-9.99 8.12 0 9.29 12.86 7.29 12.86 11.73 0 1.35-1.32 2.18-3.64 2.18-2.75 0-4.84-1.05-6.74-3.01l-4.38 4.29c2.79 2.89 5.96 4.21 10.61 4.21 6.89 0 10.96-3.05 10.96-8.35 0-9.59-12.81-7.63-12.81-11.77ZM251.57 26.6l-9.33 13.72-9.33-13.72h-4.99v26.65h6.89V39.6l5.19 7.63h4.49l5.23-7.59v13.61h6.85V26.6h-5ZM274.73 26.11c-8.4 0-14.68 5.9-14.68 13.76 0 7.86 6.35 13.87 14.75 13.87 8.32 0 14.59-5.98 14.59-13.83.01-7.9-6.26-13.8-14.66-13.8Zm0 21.61c-4.61 0-7.59-3.08-7.59-7.86 0-4.7 2.98-7.78 7.59-7.78 4.57 0 7.58 3.08 7.58 7.78 0 4.78-2.97 7.86-7.58 7.86ZM312.17 26.6h-12.12v5.79h6.93v-.79h3.99c2.01 0 3.68 1.24 3.68 3.57 0 2.29-1.66 3.53-3.68 3.53h-3.99v-6.32l-2.28.59c-2.74.71-4.65 3.13-4.65 5.89v14.38h6.93v-9.55h5.19c5.27 0 9.37-3.23 9.37-8.53 0-5.33-4.1-8.56-9.37-8.56ZM331.53 47.57v-5.15h12.04v-5.53h-12.04v-4.62h13.2v-5.68H324.6v26.65h20.37v-5.68h-13.44v.01ZM363.36 42.12c4.07-.9 6.62-3.72 6.62-7.59 0-4.7-3.87-7.93-9.41-7.93h-11.69v26.65h6.93V42.46h.39l7.55 10.79h8.02l-8.41-11.13Zm-3.75-4.47h-3.79V31.6h3.79c2.28 0 3.52 1.24 3.52 3.05 0 1.83-1.24 3-3.52 3ZM389.96 26.6v16.54c0 2.86-1.97 4.55-4.72 4.55-2.71 0-4.84-1.69-4.84-4.59V26.6h-6.89v16.02c0 6.43 4.72 11.05 11.73 11.05 7.01 0 11.69-4.59 11.69-11.02V26.6h-6.97Z"/>
  <path d="m386.94 16.26-6.74 5.34 1.94 3.23 8.05-3.46-3.25-5.11ZM248.04 74.65c0-3.66 2.81-6.59 6.65-6.59 2.13 0 3.64.73 4.84 1.9l-1.47 1.43c-.79-.82-1.9-1.32-3.37-1.32-2.6 0-4.43 1.88-4.43 4.57 0 2.71 1.83 4.57 4.43 4.57 1.6 0 2.68-.51 3.47-1.34l1.47 1.43c-1.21 1.19-2.83 1.92-4.94 1.92-3.84.02-6.65-2.89-6.65-6.57ZM262.24 74.64c0-3.66 2.96-6.57 6.71-6.57s6.73 2.91 6.73 6.59c0 3.66-2.96 6.59-6.69 6.59-3.75-.01-6.75-2.96-6.75-6.61Zm11.21 0c0-2.67-1.87-4.56-4.5-4.56s-4.48 1.87-4.48 4.56c0 2.71 1.85 4.59 4.48 4.59 2.66 0 4.5-1.89 4.5-4.59ZM279.76 68.25h1.51l6.97 8.84v-8.84h2.17v12.81h-1.51l-6.97-8.84v8.84h-2.17V68.25ZM293.95 79.08l1.47-1.43c.74 1.02 1.66 1.63 3.22 1.63 1.45 0 2.39-.62 2.39-1.65 0-3-6.26-1.43-6.26-6 0-2.25 1.88-3.57 4.32-3.57 1.73 0 3.13.73 3.99 1.76l-1.47 1.43c-.75-.82-1.53-1.23-2.58-1.23-1.32 0-2.09.53-2.09 1.46 0 2.71 6.26 1.26 6.26 6.02 0 2.31-1.79 3.73-4.63 3.73-2.09.01-3.47-.72-4.62-2.15ZM307.33 76.19v-7.94h2.17v7.92c0 1.87 1.32 3.05 3.07 3.05 1.75 0 3.03-1.19 3.03-3.04v-7.94h2.17v7.96c0 2.89-2.2 5.03-5.2 5.03s-5.24-2.15-5.24-5.04ZM322.36 68.25h2.17v10.88h6.22v1.92h-8.38v-12.8h-.01ZM336.3 70.17H332v-1.92h10.76v1.92h-4.3v10.88h-2.17V70.17h.01ZM344.99 74.64c0-3.66 2.96-6.57 6.71-6.57s6.73 2.91 6.73 6.59c0 3.66-2.96 6.59-6.69 6.59-3.76-.01-6.75-2.96-6.75-6.61Zm11.21 0c0-2.67-1.87-4.56-4.5-4.56-2.64 0-4.48 1.87-4.48 4.56 0 2.71 1.85 4.59 4.48 4.59 2.65 0 4.5-1.89 4.5-4.59ZM362.51 68.25h4.94c2.49 0 4.16 1.57 4.16 3.7 0 2.1-1.49 3.51-3.77 3.66l4.63 5.45h-2.73l-4.5-5.43h-.57v5.43h-2.17V68.25h.01Zm2.17 1.83v3.8h2.66c1.34 0 2.11-.71 2.11-1.9 0-1.06-.77-1.9-2.09-1.9h-2.68ZM375.96 68.25h8.78v1.92h-6.61v3.42h6.07v1.85h-6.07v3.69h6.71v1.92h-8.87v-12.8h-.01ZM387.68 79.08l1.47-1.43c.74 1.02 1.66 1.63 3.22 1.63 1.45 0 2.39-.62 2.39-1.65 0-3-6.26-1.43-6.26-6 0-2.25 1.88-3.57 4.32-3.57 1.73 0 3.13.73 3.99 1.76l-1.47 1.43c-.75-.82-1.53-1.23-2.58-1.23-1.32 0-2.09.53-2.09 1.46 0 2.71 6.26 1.26 6.26 6.02 0 2.31-1.79 3.73-4.63 3.73-2.09.01-3.47-.72-4.62-2.15Z"/>
</svg>
