<svg viewBox="0 0 284 160"
  fill="none"
  xmlns="http://www.w3.org/2000/svg">

<path fill="#E52330" d="M126.83 35.6h19.02l-19.03.04.01-.04ZM146.41 33.55l-.54 2.05-4.6 17.45 4.58-17.45.56-2.05ZM121.5 55.92l-2.91 11.09 19 .02 3.62-13.76-19.71 2.65ZM150.33 18.87l-3.93 14.68-.55 2.05h-19.02l.42-1.6 1.27-4.73c1.29-4.84 5.49-8.42 10.6-9.04l11.21-1.36Z"/><path fill="#E52330" d="m127.25 34-.42 1.6h-.01l.43-1.6Z"/><path fill="#E52330" d="M189.03 26.18c0 .1-.02 10.59-6.88 17.96-2.68 2.87-6.04 5.08-9.72 6.53-4.43 1.75-8.78 2.34-13.52 2.44-5.59.11-12.06-.05-17.65-.05l4.58-17.45h13.04c.97 0 1.95.05 2.91-.05 1.49-.16 2.98-.59 4.32-1.25 1.41-.69 2.67-1.68 3.57-2.95.6-.85 1.06-1.81 1.32-2.8.29-1.08.37-2.23.08-3.31-.54-2.04-1.99-3.38-3.52-4.38-2.08-1.36-4.58-1.91-7.1-2-2.46-.09-8.74-.08-9.91-.08l-19.23-.02-25.21-.01 5.5-17.88 49.49.01c5.62.35 7.1.57 11.85 2.53 3.27 1.34 6.7 3.6 9.19 6.33 7.58 7.26 6.89 16.43 6.89 16.43Z"/><path fill="#CDCCCC" d="m150.73 78.49-3.49 16.1s-22.92-.01-23.03-.02c-16.44-.75-29.4-12.71-29.4-28.86 0-16.24 13.25-29.47 29.84-30.08l2.17-.01 19.03-.05-4.58 17.45s-15.25.34-19.15.45c-5.68.17-9.44 6.43-9.44 12.23 0 6.46 5.28 11.84 11.71 12.7.41.05.82.07 1.23.07h25.11v.02Z"/><path fill="#111110" d="M8.98 117.21v14.38h6.93v-20.86l-2.28.59c-2.74.71-4.65 3.13-4.65 5.89Zm-8.4-12.27v5.79h23.74v-5.79H.58ZM43.4 104.94v16.54c0 2.86-1.97 4.55-4.72 4.55-2.71 0-4.84-1.69-4.84-4.59v-16.5h-6.89v16.02c0 6.43 4.72 11.05 11.73 11.05 7.01 0 11.69-4.59 11.69-11.02v-16.05H43.4ZM69.27 120.46c4.07-.9 6.62-3.72 6.62-7.59 0-4.7-3.87-7.93-9.41-7.93H54.79v26.65h6.93V120.8h.39l7.55 10.79h8.02l-8.41-11.13Zm-3.76-4.47h-3.79v-6.05h3.79c2.28 0 3.52 1.24 3.52 3.05 0 1.83-1.24 3-3.52 3ZM79.91 104.94v26.65h6.93v-26.65h-6.93ZM97.92 111.89c0-1.24 1.16-1.88 3.06-1.88 2.05 0 3.64.79 5.3 2.41l4.41-4.25c-2.17-2.29-5.69-3.68-9.64-3.68-5.96 0-9.99 3.05-9.99 8.12 0 9.29 12.86 7.29 12.86 11.73 0 1.35-1.32 2.18-3.64 2.18-2.75 0-4.84-1.05-6.74-3.01l-4.38 4.29c2.79 2.89 5.96 4.21 10.61 4.21 6.89 0 10.96-3.05 10.96-8.35.01-9.59-12.81-7.63-12.81-11.77ZM137.92 104.94l-9.33 13.72-9.33-13.72h-4.99v26.65h6.89v-13.65l5.19 7.63h4.49l5.23-7.59v13.61h6.85v-26.65h-5ZM161.07 104.45c-8.4 0-14.68 5.9-14.68 13.76 0 7.86 6.35 13.87 14.75 13.87 8.32 0 14.59-5.98 14.59-13.83.01-7.9-6.25-13.8-14.66-13.8Zm0 21.61c-4.61 0-7.59-3.08-7.59-7.86 0-4.7 2.98-7.78 7.59-7.78 4.57 0 7.58 3.08 7.58 7.78.01 4.78-2.97 7.86-7.58 7.86ZM198.52 104.94H186.4v5.79h6.93v-.79h3.99c2.01 0 3.68 1.24 3.68 3.57 0 2.29-1.66 3.53-3.68 3.53h-3.99v-6.32l-2.28.59c-2.74.71-4.65 3.13-4.65 5.89v14.38h6.93v-9.55h5.19c5.27 0 9.37-3.23 9.37-8.53 0-5.33-4.11-8.56-9.37-8.56ZM217.88 125.91v-5.15h12.04v-5.53h-12.04v-4.62h13.2v-5.68h-20.13v26.65h20.37v-5.68h-13.44v.01ZM249.71 120.46c4.07-.9 6.62-3.72 6.62-7.59 0-4.7-3.87-7.93-9.41-7.93h-11.69v26.65h6.93V120.8h.39l7.55 10.79h8.02l-8.41-11.13Zm-3.76-4.47h-3.79v-6.05h3.79c2.28 0 3.52 1.24 3.52 3.05 0 1.83-1.24 3-3.52 3ZM276.31 104.94v16.54c0 2.86-1.97 4.55-4.72 4.55-2.71 0-4.84-1.69-4.84-4.59v-16.5h-6.89v16.02c0 6.43 4.72 11.05 11.73 11.05 7.01 0 11.69-4.59 11.69-11.02v-16.05h-6.97Zm-3.02-10.34-6.74 5.34 1.94 3.23 8.05-3.46-3.25-5.11ZM67.5 152.99c0-3.66 2.81-6.59 6.65-6.59 2.13 0 3.64.73 4.84 1.9l-1.47 1.43c-.79-.82-1.9-1.32-3.37-1.32-2.6 0-4.43 1.88-4.43 4.57 0 2.71 1.83 4.57 4.43 4.57 1.6 0 2.68-.51 3.47-1.34l1.47 1.43c-1.21 1.19-2.83 1.92-4.94 1.92-3.84.02-6.65-2.89-6.65-6.57ZM81.7 152.97c0-3.66 2.96-6.57 6.71-6.57s6.73 2.91 6.73 6.59c0 3.66-2.96 6.59-6.69 6.59-3.75 0-6.75-2.95-6.75-6.61Zm11.21 0c0-2.67-1.87-4.56-4.5-4.56s-4.48 1.87-4.48 4.56c0 2.71 1.85 4.59 4.48 4.59 2.66.01 4.5-1.88 4.5-4.59ZM99.23 146.59h1.51l6.97 8.84v-8.84h2.17v12.81h-1.51l-6.97-8.84v8.84h-2.17v-12.81ZM113.41 157.42l1.47-1.43c.74 1.02 1.66 1.63 3.22 1.63 1.45 0 2.39-.62 2.39-1.65 0-3-6.26-1.43-6.26-6 0-2.25 1.88-3.57 4.32-3.57 1.73 0 3.13.73 3.99 1.76l-1.47 1.43c-.75-.82-1.53-1.23-2.58-1.23-1.32 0-2.09.53-2.09 1.46 0 2.71 6.26 1.26 6.26 6.02 0 2.31-1.79 3.73-4.63 3.73-2.09.01-3.47-.72-4.62-2.15ZM126.79 154.53v-7.94h2.17v7.92c0 1.87 1.32 3.05 3.07 3.05 1.75 0 3.03-1.19 3.03-3.04v-7.94h2.17v7.96c0 2.89-2.2 5.03-5.2 5.03-3 .01-5.24-2.15-5.24-5.04ZM141.82 146.59h2.17v10.88h6.22v1.92h-8.38v-12.8h-.01ZM155.76 148.51h-4.3v-1.92h10.76v1.92h-4.3v10.88h-2.17v-10.88h.01ZM164.45 152.97c0-3.66 2.96-6.57 6.71-6.57s6.73 2.91 6.73 6.59c0 3.66-2.96 6.59-6.69 6.59-3.75 0-6.75-2.95-6.75-6.61Zm11.21 0c0-2.67-1.87-4.56-4.5-4.56s-4.48 1.87-4.48 4.56c0 2.71 1.85 4.59 4.48 4.59 2.65.01 4.5-1.88 4.5-4.59ZM181.97 146.59h4.94c2.49 0 4.16 1.57 4.16 3.7 0 2.1-1.49 3.51-3.77 3.66l4.63 5.45h-2.73l-4.5-5.43h-.57v5.43h-2.17v-12.81h.01Zm2.17 1.83v3.8h2.66c1.34 0 2.11-.71 2.11-1.9 0-1.06-.77-1.9-2.09-1.9h-2.68ZM195.42 146.59h8.78v1.92h-6.61v3.42h6.07v1.85h-6.07v3.69h6.71v1.92h-8.87v-12.8h-.01ZM207.14 157.42l1.47-1.43c.74 1.02 1.66 1.63 3.22 1.63 1.45 0 2.39-.62 2.39-1.65 0-3-6.26-1.43-6.26-6 0-2.25 1.88-3.57 4.32-3.57 1.73 0 3.13.73 3.99 1.76l-1.47 1.43c-.75-.82-1.53-1.23-2.58-1.23-1.32 0-2.09.53-2.09 1.46 0 2.71 6.26 1.26 6.26 6.02 0 2.31-1.79 3.73-4.63 3.73-2.09.01-3.47-.72-4.62-2.15Z"/></svg>
